solid Mesh
 facet normal 0 1 0
  outer loop
   vertex 0.05 0.05 0.92
   vertex -0.05 0.05 0.92
   vertex -0.05 0.05 1.02
  endloop
 endfacet
 facet normal 0 1 -0
  outer loop
   vertex 0.05 0.05 0.92
   vertex -0.05 0.05 1.02
   vertex 0.05 0.05 1.02
  endloop
 endfacet
 facet normal -1 0 0
  outer loop
   vertex -0.05 0.05 0.92
   vertex -0.05 -0.05 0.92
   vertex -0.05 -0.05 1.02
  endloop
 endfacet
 facet normal -1 0 0
  outer loop
   vertex -0.05 0.05 0.92
   vertex -0.05 -0.05 1.02
   vertex -0.05 0.05 1.02
  endloop
 endfacet
 facet normal 1 0 0
  outer loop
   vertex 0.05 -0.05 0.92
   vertex 0.05 0.05 0.92
   vertex 0.05 0.05 1.02
  endloop
 endfacet
 facet normal 1 0 0
  outer loop
   vertex 0.05 -0.05 0.92
   vertex 0.05 0.05 1.02
   vertex 0.05 -0.05 1.02
  endloop
 endfacet
 facet normal 0 0 -1
  outer loop
   vertex -0.05 0.05 0.92
   vertex 0.05 0.05 0.92
   vertex -0.05 -0.05 0.92
  endloop
 endfacet
 facet normal 0 0 -1
  outer loop
   vertex -0.05 -0.05 0.92
   vertex 0.05 0.05 0.92
   vertex 0.05 -0.05 0.92
  endloop
 endfacet
 facet normal 0 0 1
  outer loop
   vertex 0.04 -0.04 1.02
   vertex -0.05 -0.05 1.02
   vertex 0.05 -0.05 1.02
  endloop
 endfacet
 facet normal 0 0 1
  outer loop
   vertex 0.04 -0.04 1.02
   vertex -0.04 -0.04 1.02
   vertex -0.05 -0.05 1.02
  endloop
 endfacet
 facet normal 0 0 1
  outer loop
   vertex -0.04 0.04 1.02
   vertex -0.05 0.05 1.02
   vertex -0.05 -0.05 1.02
  endloop
 endfacet
 facet normal 0 0 1
  outer loop
   vertex -0.04 0.04 1.02
   vertex -0.05 -0.05 1.02
   vertex -0.04 -0.04 1.02
  endloop
 endfacet
 facet normal 0 0 1
  outer loop
   vertex 0.05 0.05 1.02
   vertex 0.04 0.04 1.02
   vertex 0.04 -0.04 1.02
  endloop
 endfacet
 facet normal 0 0 1
  outer loop
   vertex 0.05 0.05 1.02
   vertex 0.04 -0.04 1.02
   vertex 0.05 -0.05 1.02
  endloop
 endfacet
 facet normal 0 0 1
  outer loop
   vertex 0.05 0.05 1.02
   vertex -0.05 0.05 1.02
   vertex 0.04 0.04 1.02
  endloop
 endfacet
 facet normal 0 0 1
  outer loop
   vertex 0.04 0.04 1.02
   vertex -0.05 0.05 1.02
   vertex -0.04 0.04 1.02
  endloop
 endfacet
 facet normal 0 -1 0
  outer loop
   vertex -0.05 -0.05 0.92
   vertex 0.05 -0.05 0.92
   vertex 0.05 -0.05 1.02
  endloop
 endfacet
 facet normal 0 -1 0
  outer loop
   vertex -0.05 -0.05 0.92
   vertex 0.05 -0.05 1.02
   vertex -0.05 -0.05 1.02
  endloop
 endfacet
 facet normal 1 0 0
  outer loop
   vertex -0.04 0.04 1.02
   vertex -0.04 -0.04 1.02
   vertex -0.04 -0.04 1
  endloop
 endfacet
 facet normal 1 0 0
  outer loop
   vertex -0.04 0.04 1.02
   vertex -0.04 -0.04 1
   vertex -0.04 0.04 1
  endloop
 endfacet
 facet normal -0 1 0
  outer loop
   vertex -0.04 -0.04 1.02
   vertex 0.04 -0.04 1.02
   vertex 0.04 -0.04 1
  endloop
 endfacet
 facet normal 0 1 0
  outer loop
   vertex -0.04 -0.04 1.02
   vertex 0.04 -0.04 1
   vertex -0.04 -0.04 1
  endloop
 endfacet
 facet normal -1 0 0
  outer loop
   vertex 0.04 -0.04 1.02
   vertex 0.04 0.04 1.02
   vertex 0.04 0.04 1
  endloop
 endfacet
 facet normal -1 0 0
  outer loop
   vertex 0.04 -0.04 1.02
   vertex 0.04 0.04 1
   vertex 0.04 -0.04 1
  endloop
 endfacet
 facet normal -0 -1 0
  outer loop
   vertex 0.04 0.04 1.02
   vertex -0.04 0.04 1.02
   vertex -0.04 0.04 1
  endloop
 endfacet
 facet normal 0 -1 -0
  outer loop
   vertex 0.04 0.04 1.02
   vertex -0.04 0.04 1
   vertex 0.04 0.04 1
  endloop
 endfacet
 facet normal 0 0 1
  outer loop
   vertex 0.04 0.04 1
   vertex -0.04 0.04 1
   vertex -0.04 -0.04 1
  endloop
 endfacet
 facet normal 0 0 1
  outer loop
   vertex 0.04 0.04 1
   vertex -0.04 -0.04 1
   vertex 0.04 -0.04 1
  endloop
 endfacet
endsolid Mesh
