solid Mesh
  facet normal 0.000000 1.000000 0.000000
    outer loop
      vertex 50.000000 50.000000 920.000000
      vertex -50.000000 50.000000 920.000000
      vertex -50.000000 50.000000 1020.000000
    endloop
  endfacet
  facet normal 0.000000 1.000000 -0.000000
    outer loop
      vertex 50.000000 50.000000 920.000000
      vertex -50.000000 50.000000 1020.000000
      vertex 50.000000 50.000000 1020.000000
    endloop
  endfacet
  facet normal -1.000000 0.000000 0.000000
    outer loop
      vertex -50.000000 50.000000 920.000000
      vertex -50.000000 -50.000000 920.000000
      vertex -50.000000 -50.000000 1020.000000
    endloop
  endfacet
  facet normal -1.000000 0.000000 0.000000
    outer loop
      vertex -50.000000 50.000000 920.000000
      vertex -50.000000 -50.000000 1020.000000
      vertex -50.000000 50.000000 1020.000000
    endloop
  endfacet
  facet normal 1.000000 0.000000 0.000000
    outer loop
      vertex 50.000000 -50.000000 920.000000
      vertex 50.000000 50.000000 920.000000
      vertex 50.000000 50.000000 1020.000000
    endloop
  endfacet
  facet normal 1.000000 0.000000 0.000000
    outer loop
      vertex 50.000000 -50.000000 920.000000
      vertex 50.000000 50.000000 1020.000000
      vertex 50.000000 -50.000000 1020.000000
    endloop
  endfacet
  facet normal 0.000000 0.000000 -1.000000
    outer loop
      vertex -50.000000 50.000000 920.000000
      vertex 50.000000 50.000000 920.000000
      vertex -50.000000 -50.000000 920.000000
    endloop
  endfacet
  facet normal 0.000000 0.000000 -1.000000
    outer loop
      vertex -50.000000 -50.000000 920.000000
      vertex 50.000000 50.000000 920.000000
      vertex 50.000000 -50.000000 920.000000
    endloop
  endfacet
  facet normal 0.000000 0.000000 1.000000
    outer loop
      vertex 40.000000 -40.000000 1020.000000
      vertex -50.000000 -50.000000 1020.000000
      vertex 50.000000 -50.000000 1020.000000
    endloop
  endfacet
  facet normal 0.000000 0.000000 1.000000
    outer loop
      vertex 40.000000 -40.000000 1020.000000
      vertex -40.000000 -40.000000 1020.000000
      vertex -50.000000 -50.000000 1020.000000
    endloop
  endfacet
  facet normal 0.000000 0.000000 1.000000
    outer loop
      vertex -40.000000 40.000000 1020.000000
      vertex -50.000000 50.000000 1020.000000
      vertex -50.000000 -50.000000 1020.000000
    endloop
  endfacet
  facet normal 0.000000 0.000000 1.000000
    outer loop
      vertex -40.000000 40.000000 1020.000000
      vertex -50.000000 -50.000000 1020.000000
      vertex -40.000000 -40.000000 1020.000000
    endloop
  endfacet
  facet normal 0.000000 0.000000 1.000000
    outer loop
      vertex 50.000000 50.000000 1020.000000
      vertex 40.000000 40.000000 1020.000000
      vertex 40.000000 -40.000000 1020.000000
    endloop
  endfacet
  facet normal 0.000000 0.000000 1.000000
    outer loop
      vertex 50.000000 50.000000 1020.000000
      vertex 40.000000 -40.000000 1020.000000
      vertex 50.000000 -50.000000 1020.000000
    endloop
  endfacet
  facet normal 0.000000 0.000000 1.000000
    outer loop
      vertex 50.000000 50.000000 1020.000000
      vertex -50.000000 50.000000 1020.000000
      vertex 40.000000 40.000000 1020.000000
    endloop
  endfacet
  facet normal 0.000000 0.000000 1.000000
    outer loop
      vertex 40.000000 40.000000 1020.000000
      vertex -50.000000 50.000000 1020.000000
      vertex -40.000000 40.000000 1020.000000
    endloop
  endfacet
  facet normal 0.000000 -1.000000 0.000000
    outer loop
      vertex -50.000000 -50.000000 920.000000
      vertex 50.000000 -50.000000 920.000000
      vertex 50.000000 -50.000000 1020.000000
    endloop
  endfacet
  facet normal 0.000000 -1.000000 0.000000
    outer loop
      vertex -50.000000 -50.000000 920.000000
      vertex 50.000000 -50.000000 1020.000000
      vertex -50.000000 -50.000000 1020.000000
    endloop
  endfacet
  facet normal 1.000000 0.000000 0.000000
    outer loop
      vertex -40.000000 40.000000 1020.000000
      vertex -40.000000 -40.000000 1020.000000
      vertex -40.000000 -40.000000 1000.000000
    endloop
  endfacet
  facet normal 1.000000 0.000000 0.000000
    outer loop
      vertex -40.000000 40.000000 1020.000000
      vertex -40.000000 -40.000000 1000.000000
      vertex -40.000000 40.000000 1000.000000
    endloop
  endfacet
  facet normal -0.000000 1.000000 0.000000
    outer loop
      vertex -40.000000 -40.000000 1020.000000
      vertex 40.000000 -40.000000 1020.000000
      vertex 40.000000 -40.000000 1000.000000
    endloop
  endfacet
  facet normal 0.000000 1.000000 0.000000
    outer loop
      vertex -40.000000 -40.000000 1020.000000
      vertex 40.000000 -40.000000 1000.000000
      vertex -40.000000 -40.000000 1000.000000
    endloop
  endfacet
  facet normal -1.000000 0.000000 0.000000
    outer loop
      vertex 40.000000 -40.000000 1020.000000
      vertex 40.000000 40.000000 1020.000000
      vertex 40.000000 40.000000 1000.000000
    endloop
  endfacet
  facet normal -1.000000 0.000000 0.000000
    outer loop
      vertex 40.000000 -40.000000 1020.000000
      vertex 40.000000 40.000000 1000.000000
      vertex 40.000000 -40.000000 1000.000000
    endloop
  endfacet
  facet normal -0.000000 -1.000000 0.000000
    outer loop
      vertex 40.000000 40.000000 1020.000000
      vertex -40.000000 40.000000 1020.000000
      vertex -40.000000 40.000000 1000.000000
    endloop
  endfacet
  facet normal 0.000000 -1.000000 -0.000000
    outer loop
      vertex 40.000000 40.000000 1020.000000
      vertex -40.000000 40.000000 1000.000000
      vertex 40.000000 40.000000 1000.000000
    endloop
  endfacet
  facet normal 0.000000 0.000000 1.000000
    outer loop
      vertex 40.000000 40.000000 1000.000000
      vertex -40.000000 40.000000 1000.000000
      vertex -40.000000 -40.000000 1000.000000
    endloop
  endfacet
  facet normal 0.000000 0.000000 1.000000
    outer loop
      vertex 40.000000 40.000000 1000.000000
      vertex -40.000000 -40.000000 1000.000000
      vertex 40.000000 -40.000000 1000.000000
    endloop
  endfacet
endsolid Mesh
