solid Mesh
  facet normal 0.000000 1.000000 0.000000
    outer loop
      vertex -10000.000000 -5000.000000 -0.000000
      vertex -10000.000000 -5000.000000 7100.000000
      vertex 10000.000000 -5000.000000 0.000000
    endloop
  endfacet
  facet normal 0.000000 1.000000 -0.000000
    outer loop
      vertex 10000.000000 -5000.000000 0.000000
      vertex -10000.000000 -5000.000000 7100.000000
      vertex 10000.000000 -5000.000000 7100.000000
    endloop
  endfacet
  facet normal 1.000000 0.000000 0.000000
    outer loop
      vertex -10000.000000 0.000000 5000.000000
      vertex -10000.000000 -5000.000000 -0.000000
      vertex -10000.000000 5000.000000 -0.000000
    endloop
  endfacet
  facet normal 1.000000 0.000000 0.000000
    outer loop
      vertex -10000.000000 0.000000 5000.000000
      vertex -10000.000000 -5000.000000 8000.000000
      vertex -10000.000000 -5000.000000 7100.000000
    endloop
  endfacet
  facet normal 1.000000 0.000000 0.000000
    outer loop
      vertex -10000.000000 0.000000 5000.000000
      vertex -10000.000000 -5000.000000 7100.000000
      vertex -10000.000000 -5000.000000 -0.000000
    endloop
  endfacet
  facet normal 1.000000 0.000000 0.000000
    outer loop
      vertex -10000.000000 5000.000000 7100.000000
      vertex -10000.000000 0.000000 5000.000000
      vertex -10000.000000 5000.000000 -0.000000
    endloop
  endfacet
  facet normal 1.000000 0.000000 0.000000
    outer loop
      vertex -10000.000000 5000.000000 8000.000000
      vertex -10000.000000 0.000000 5000.000000
      vertex -10000.000000 5000.000000 7100.000000
    endloop
  endfacet
  facet normal 0.000000 0.000000 1.000000
    outer loop
      vertex -10000.000000 -5200.000000 7100.000000
      vertex 10000.000000 -5200.000000 7100.000000
      vertex 10000.000000 -5000.000000 7100.000000
    endloop
  endfacet
  facet normal 0.000000 0.000000 1.000000
    outer loop
      vertex -10000.000000 -5200.000000 7100.000000
      vertex 10000.000000 -5000.000000 7100.000000
      vertex -10000.000000 -5000.000000 7100.000000
    endloop
  endfacet
  facet normal -1.000000 0.000000 0.000000
    outer loop
      vertex 10000.000000 -5000.000000 0.000000
      vertex 10000.000000 -0.000000 5000.000000
      vertex 10000.000000 5000.000000 0.000000
    endloop
  endfacet
  facet normal -1.000000 0.000000 0.000000
    outer loop
      vertex 10000.000000 -5000.000000 8000.000000
      vertex 10000.000000 -0.000000 5000.000000
      vertex 10000.000000 -5000.000000 7100.000000
    endloop
  endfacet
  facet normal -1.000000 0.000000 0.000000
    outer loop
      vertex 10000.000000 -5000.000000 7100.000000
      vertex 10000.000000 -0.000000 5000.000000
      vertex 10000.000000 -5000.000000 0.000000
    endloop
  endfacet
  facet normal -1.000000 0.000000 0.000000
    outer loop
      vertex 10000.000000 -0.000000 5000.000000
      vertex 10000.000000 5000.000000 7100.000000
      vertex 10000.000000 5000.000000 0.000000
    endloop
  endfacet
  facet normal -1.000000 0.000000 0.000000
    outer loop
      vertex 10000.000000 -0.000000 5000.000000
      vertex 10000.000000 5000.000000 8000.000000
      vertex 10000.000000 5000.000000 7100.000000
    endloop
  endfacet
  facet normal -0.000000 -0.000000 -1.000000
    outer loop
      vertex 10000.000000 5000.000000 0.000000
      vertex 10200.000000 5200.000000 0.000000
      vertex 10000.000000 -5000.000000 0.000000
    endloop
  endfacet
  facet normal 0.000000 -0.000000 -1.000000
    outer loop
      vertex 10000.000000 -5000.000000 0.000000
      vertex 10200.000000 5200.000000 0.000000
      vertex 10200.000000 -5200.000000 0.000000
    endloop
  endfacet
  facet normal 0.000000 -0.000000 -1.000000
    outer loop
      vertex 10200.000000 -5200.000000 0.000000
      vertex -10000.000000 -5000.000000 -0.000000
      vertex 10000.000000 -5000.000000 0.000000
    endloop
  endfacet
  facet normal 0.000000 0.000000 -1.000000
    outer loop
      vertex 10200.000000 -5200.000000 0.000000
      vertex -10200.000000 -5200.000000 -0.000000
      vertex -10000.000000 -5000.000000 -0.000000
    endloop
  endfacet
  facet normal 0.000000 -0.000000 -1.000000
    outer loop
      vertex 10000.000000 5000.000000 0.000000
      vertex -10000.000000 5000.000000 -0.000000
      vertex 10200.000000 5200.000000 0.000000
    endloop
  endfacet
  facet normal 0.000000 -0.000000 -1.000000
    outer loop
      vertex -10200.000000 -5200.000000 -0.000000
      vertex -10000.000000 5000.000000 -0.000000
      vertex -10000.000000 -5000.000000 -0.000000
    endloop
  endfacet
  facet normal 0.000000 -0.000000 -1.000000
    outer loop
      vertex -10000.000000 5000.000000 -0.000000
      vertex -10200.000000 5200.000000 -0.000000
      vertex 10200.000000 5200.000000 0.000000
    endloop
  endfacet
  facet normal 0.000000 -0.000000 -1.000000
    outer loop
      vertex -10200.000000 -5200.000000 -0.000000
      vertex -10200.000000 5200.000000 -0.000000
      vertex -10000.000000 5000.000000 -0.000000
    endloop
  endfacet
  facet normal 1.000000 0.000000 0.000000
    outer loop
      vertex -10000.000000 -5200.000000 8000.000000
      vertex -10000.000000 -5200.000000 7100.000000
      vertex -10000.000000 -5000.000000 7100.000000
    endloop
  endfacet
  facet normal 1.000000 -0.000000 0.000000
    outer loop
      vertex -10000.000000 -5200.000000 8000.000000
      vertex -10000.000000 -5000.000000 7100.000000
      vertex -10000.000000 -5000.000000 8000.000000
    endloop
  endfacet
  facet normal 0.000000 -0.514496 -0.857493
    outer loop
      vertex -10000.000000 -5000.000000 8000.000000
      vertex -10000.000000 0.000000 5000.000000
      vertex 10000.000000 -5000.000000 8000.000000
    endloop
  endfacet
  facet normal 0.000000 -0.514496 -0.857493
    outer loop
      vertex 10000.000000 -5000.000000 8000.000000
      vertex -10000.000000 0.000000 5000.000000
      vertex 10000.000000 -0.000000 5000.000000
    endloop
  endfacet
  facet normal 0.000000 0.514496 -0.857493
    outer loop
      vertex 10000.000000 -0.000000 5000.000000
      vertex -10000.000000 0.000000 5000.000000
      vertex 10000.000000 5000.000000 8000.000000
    endloop
  endfacet
  facet normal 0.000000 0.514496 -0.857493
    outer loop
      vertex -10000.000000 0.000000 5000.000000
      vertex -10000.000000 5000.000000 8000.000000
      vertex 10000.000000 5000.000000 8000.000000
    endloop
  endfacet
  facet normal 0.000000 -1.000000 0.000000
    outer loop
      vertex -10000.000000 5000.000000 7100.000000
      vertex -10000.000000 5000.000000 -0.000000
      vertex 10000.000000 5000.000000 0.000000
    endloop
  endfacet
  facet normal 0.000000 -1.000000 0.000000
    outer loop
      vertex -10000.000000 5000.000000 7100.000000
      vertex 10000.000000 5000.000000 0.000000
      vertex 10000.000000 5000.000000 7100.000000
    endloop
  endfacet
  facet normal 1.000000 0.000000 -0.000000
    outer loop
      vertex -10000.000000 5200.000000 7100.000000
      vertex -10000.000000 5200.000000 8000.000000
      vertex -10000.000000 5000.000000 8000.000000
    endloop
  endfacet
  facet normal 1.000000 0.000000 0.000000
    outer loop
      vertex -10000.000000 5200.000000 7100.000000
      vertex -10000.000000 5000.000000 8000.000000
      vertex -10000.000000 5000.000000 7100.000000
    endloop
  endfacet
  facet normal -1.000000 0.000000 0.000000
    outer loop
      vertex 10000.000000 -5000.000000 7100.000000
      vertex 10000.000000 -5200.000000 8000.000000
      vertex 10000.000000 -5000.000000 8000.000000
    endloop
  endfacet
  facet normal -1.000000 0.000000 0.000000
    outer loop
      vertex 10000.000000 -5200.000000 7100.000000
      vertex 10000.000000 -5200.000000 8000.000000
      vertex 10000.000000 -5000.000000 7100.000000
    endloop
  endfacet
  facet normal 0.000000 -1.000000 0.000000
    outer loop
      vertex 10200.000000 -5200.000000 8353.238281
      vertex 10000.000000 -5200.000000 8000.000000
      vertex 10000.000000 -5200.000000 7100.000000
    endloop
  endfacet
  facet normal 0.000000 -1.000000 -0.000000
    outer loop
      vertex 10200.000000 -5200.000000 8353.238281
      vertex 10000.000000 -5200.000000 7100.000000
      vertex 10200.000000 -5200.000000 0.000000
    endloop
  endfacet
  facet normal 0.000000 -1.000000 -0.000000
    outer loop
      vertex -10000.000000 -5200.000000 7100.000000
      vertex -10200.000000 -5200.000000 -0.000000
      vertex 10200.000000 -5200.000000 0.000000
    endloop
  endfacet
  facet normal 0.000000 -1.000000 0.000000
    outer loop
      vertex -10000.000000 -5200.000000 7100.000000
      vertex 10200.000000 -5200.000000 0.000000
      vertex 10000.000000 -5200.000000 7100.000000
    endloop
  endfacet
  facet normal 0.000000 -1.000000 0.000000
    outer loop
      vertex -10000.000000 -5200.000000 8000.000000
      vertex 10000.000000 -5200.000000 8000.000000
      vertex 10200.000000 -5200.000000 8353.238281
    endloop
  endfacet
  facet normal 0.000000 -1.000000 0.000000
    outer loop
      vertex -10200.000000 -5200.000000 8353.238281
      vertex -10000.000000 -5200.000000 7100.000000
      vertex -10000.000000 -5200.000000 8000.000000
    endloop
  endfacet
  facet normal 0.000000 -1.000000 0.000000
    outer loop
      vertex -10200.000000 -5200.000000 8353.238281
      vertex -10000.000000 -5200.000000 8000.000000
      vertex 10200.000000 -5200.000000 8353.238281
    endloop
  endfacet
  facet normal 0.000000 -1.000000 0.000000
    outer loop
      vertex -10200.000000 -5200.000000 8353.238281
      vertex -10200.000000 -5200.000000 -0.000000
      vertex -10000.000000 -5200.000000 7100.000000
    endloop
  endfacet
  facet normal -1.000000 0.000000 0.000000
    outer loop
      vertex 10000.000000 5000.000000 8000.000000
      vertex 10000.000000 5200.000000 7100.000000
      vertex 10000.000000 5000.000000 7100.000000
    endloop
  endfacet
  facet normal -1.000000 -0.000000 -0.000000
    outer loop
      vertex 10000.000000 5200.000000 8000.000000
      vertex 10000.000000 5200.000000 7100.000000
      vertex 10000.000000 5000.000000 8000.000000
    endloop
  endfacet
  facet normal -0.000000 1.000000 0.000000
    outer loop
      vertex 10000.000000 5200.000000 8000.000000
      vertex 10200.000000 5200.000000 8353.238281
      vertex 10000.000000 5200.000000 7100.000000
    endloop
  endfacet
  facet normal -0.000000 1.000000 0.000000
    outer loop
      vertex 10000.000000 5200.000000 7100.000000
      vertex 10200.000000 5200.000000 8353.238281
      vertex 10200.000000 5200.000000 0.000000
    endloop
  endfacet
  facet normal 0.000000 1.000000 0.000000
    outer loop
      vertex -10200.000000 5200.000000 -0.000000
      vertex -10000.000000 5200.000000 7100.000000
      vertex 10200.000000 5200.000000 0.000000
    endloop
  endfacet
  facet normal 0.000000 1.000000 0.000000
    outer loop
      vertex 10200.000000 5200.000000 0.000000
      vertex -10000.000000 5200.000000 7100.000000
      vertex 10000.000000 5200.000000 7100.000000
    endloop
  endfacet
  facet normal 0.000000 1.000000 -0.000000
    outer loop
      vertex -10000.000000 5200.000000 8000.000000
      vertex -10200.000000 5200.000000 8353.238281
      vertex 10000.000000 5200.000000 8000.000000
    endloop
  endfacet
  facet normal 0.000000 1.000000 -0.000000
    outer loop
      vertex -10000.000000 5200.000000 7100.000000
      vertex -10200.000000 5200.000000 8353.238281
      vertex -10000.000000 5200.000000 8000.000000
    endloop
  endfacet
  facet normal 0.000000 1.000000 -0.000000
    outer loop
      vertex 10000.000000 5200.000000 8000.000000
      vertex -10200.000000 5200.000000 8353.238281
      vertex 10200.000000 5200.000000 8353.238281
    endloop
  endfacet
  facet normal 0.000000 1.000000 0.000000
    outer loop
      vertex -10200.000000 5200.000000 -0.000000
      vertex -10200.000000 5200.000000 8353.238281
      vertex -10000.000000 5200.000000 7100.000000
    endloop
  endfacet
  facet normal -1.000000 0.000000 0.000000
    outer loop
      vertex -10200.000000 -5200.000000 0.000000
      vertex -10200.000000 0.000000 5233.238281
      vertex -10200.000000 5200.000000 -0.000000
    endloop
  endfacet
  facet normal -1.000000 0.000000 0.000000
    outer loop
      vertex -10200.000000 -5200.000000 8353.238281
      vertex -10200.000000 0.000000 5233.238281
      vertex -10200.000000 -5200.000000 0.000000
    endloop
  endfacet
  facet normal -1.000000 0.000000 0.000000
    outer loop
      vertex -10200.000000 0.000000 5233.238281
      vertex -10200.000000 5200.000000 8353.238281
      vertex -10200.000000 5200.000000 -0.000000
    endloop
  endfacet
  facet normal 1.000000 0.000000 0.000000
    outer loop
      vertex 10200.000000 -0.000000 5233.238281
      vertex 10200.000000 -5200.000000 0.000000
      vertex 10200.000000 5200.000000 0.000000
    endloop
  endfacet
  facet normal 1.000000 0.000000 0.000000
    outer loop
      vertex 10200.000000 -0.000000 5233.238281
      vertex 10200.000000 -5200.000000 8353.238281
      vertex 10200.000000 -5200.000000 0.000000
    endloop
  endfacet
  facet normal 1.000000 0.000000 0.000000
    outer loop
      vertex 10200.000000 5200.000000 8353.238281
      vertex 10200.000000 -0.000000 5233.238281
      vertex 10200.000000 5200.000000 0.000000
    endloop
  endfacet
  facet normal -0.000000 0.000000 -1.000000
    outer loop
      vertex 10000.000000 -5000.000000 8000.000000
      vertex -10000.000000 -5200.000000 8000.000000
      vertex -10000.000000 -5000.000000 8000.000000
    endloop
  endfacet
  facet normal 0.000000 0.000000 -1.000000
    outer loop
      vertex 10000.000000 -5200.000000 8000.000000
      vertex -10000.000000 -5200.000000 8000.000000
      vertex 10000.000000 -5000.000000 8000.000000
    endloop
  endfacet
  facet normal 0.000000 0.000000 -1.000000
    outer loop
      vertex -10000.000000 5200.000000 8000.000000
      vertex 10000.000000 5200.000000 8000.000000
      vertex 10000.000000 5000.000000 8000.000000
    endloop
  endfacet
  facet normal 0.000000 0.000000 -1.000000
    outer loop
      vertex -10000.000000 5200.000000 8000.000000
      vertex 10000.000000 5000.000000 8000.000000
      vertex -10000.000000 5000.000000 8000.000000
    endloop
  endfacet
  facet normal 0.000000 0.000000 1.000000
    outer loop
      vertex 10000.000000 5200.000000 7100.000000
      vertex -10000.000000 5200.000000 7100.000000
      vertex -10000.000000 5000.000000 7100.000000
    endloop
  endfacet
  facet normal 0.000000 0.000000 1.000000
    outer loop
      vertex 10000.000000 5200.000000 7100.000000
      vertex -10000.000000 5000.000000 7100.000000
      vertex 10000.000000 5000.000000 7100.000000
    endloop
  endfacet
  facet normal -0.000000 0.514496 0.857493
    outer loop
      vertex -10200.000000 -5200.000000 8353.238281
      vertex 10200.000000 -5200.000000 8353.238281
      vertex 10200.000000 -0.000000 5233.238281
    endloop
  endfacet
  facet normal 0.000000 0.514496 0.857493
    outer loop
      vertex -10200.000000 0.000000 5233.238281
      vertex -10200.000000 -5200.000000 8353.238281
      vertex 10200.000000 -0.000000 5233.238281
    endloop
  endfacet
  facet normal 0.000000 -0.514496 0.857493
    outer loop
      vertex -10200.000000 5200.000000 8353.238281
      vertex -10200.000000 0.000000 5233.238281
      vertex 10200.000000 -0.000000 5233.238281
    endloop
  endfacet
  facet normal 0.000000 -0.514496 0.857493
    outer loop
      vertex -10200.000000 5200.000000 8353.238281
      vertex 10200.000000 -0.000000 5233.238281
      vertex 10200.000000 5200.000000 8353.238281
    endloop
  endfacet
endsolid Mesh
