solid Mesh
  facet normal 0.000000 1.000000 0.000000
    outer loop
      vertex 30.000000 30.000000 1020.000000
      vertex -30.000000 30.000000 970.000000
      vertex -30.000000 30.000000 1020.000000
    endloop
  endfacet
  facet normal 0.000000 1.000000 -0.000000
    outer loop
      vertex 30.000000 30.000000 970.000000
      vertex -30.000000 30.000000 970.000000
      vertex 30.000000 30.000000 1020.000000
    endloop
  endfacet
  facet normal -1.000000 -0.000000 0.000000
    outer loop
      vertex -30.000000 30.000000 1020.000000
      vertex -30.000000 -30.000000 970.000000
      vertex -30.000000 -30.000000 1020.000000
    endloop
  endfacet
  facet normal -1.000000 0.000000 0.000000
    outer loop
      vertex -30.000000 30.000000 970.000000
      vertex -30.000000 -30.000000 970.000000
      vertex -30.000000 30.000000 1020.000000
    endloop
  endfacet
  facet normal 1.000000 -0.000000 0.000000
    outer loop
      vertex 30.000000 -30.000000 1020.000000
      vertex 30.000000 30.000000 970.000000
      vertex 30.000000 30.000000 1020.000000
    endloop
  endfacet
  facet normal 1.000000 0.000000 0.000000
    outer loop
      vertex 30.000000 -30.000000 970.000000
      vertex 30.000000 30.000000 970.000000
      vertex 30.000000 -30.000000 1020.000000
    endloop
  endfacet
  facet normal 0.000000 0.000000 -1.000000
    outer loop
      vertex -30.000000 30.000000 970.000000
      vertex 30.000000 30.000000 970.000000
      vertex -30.000000 -30.000000 970.000000
    endloop
  endfacet
  facet normal 0.000000 0.000000 -1.000000
    outer loop
      vertex -30.000000 -30.000000 970.000000
      vertex 30.000000 30.000000 970.000000
      vertex 30.000000 -30.000000 970.000000
    endloop
  endfacet
  facet normal 0.000000 0.000000 1.000000
    outer loop
      vertex 20.049999 -20.049999 1020.000000
      vertex -30.000000 -30.000000 1020.000000
      vertex 30.000000 -30.000000 1020.000000
    endloop
  endfacet
  facet normal 0.000000 0.000000 1.000000
    outer loop
      vertex 20.049999 -20.049999 1020.000000
      vertex -20.049999 -20.049999 1020.000000
      vertex -30.000000 -30.000000 1020.000000
    endloop
  endfacet
  facet normal 0.000000 0.000000 1.000000
    outer loop
      vertex -20.049999 20.049999 1020.000000
      vertex -30.000000 30.000000 1020.000000
      vertex -30.000000 -30.000000 1020.000000
    endloop
  endfacet
  facet normal 0.000000 0.000000 1.000000
    outer loop
      vertex -20.049999 20.049999 1020.000000
      vertex -30.000000 -30.000000 1020.000000
      vertex -20.049999 -20.049999 1020.000000
    endloop
  endfacet
  facet normal 0.000000 0.000000 1.000000
    outer loop
      vertex 20.049999 20.049999 1020.000000
      vertex -30.000000 30.000000 1020.000000
      vertex -20.049999 20.049999 1020.000000
    endloop
  endfacet
  facet normal 0.000000 0.000000 1.000000
    outer loop
      vertex 30.000000 30.000000 1020.000000
      vertex 20.049999 20.049999 1020.000000
      vertex 20.049999 -20.049999 1020.000000
    endloop
  endfacet
  facet normal 0.000000 0.000000 1.000000
    outer loop
      vertex 30.000000 30.000000 1020.000000
      vertex 20.049999 -20.049999 1020.000000
      vertex 30.000000 -30.000000 1020.000000
    endloop
  endfacet
  facet normal 0.000000 0.000000 1.000000
    outer loop
      vertex 30.000000 30.000000 1020.000000
      vertex -30.000000 30.000000 1020.000000
      vertex 20.049999 20.049999 1020.000000
    endloop
  endfacet
  facet normal 0.000000 -1.000000 0.000000
    outer loop
      vertex -30.000000 -30.000000 1020.000000
      vertex 30.000000 -30.000000 970.000000
      vertex 30.000000 -30.000000 1020.000000
    endloop
  endfacet
  facet normal 0.000000 -1.000000 0.000000
    outer loop
      vertex -30.000000 -30.000000 970.000000
      vertex 30.000000 -30.000000 970.000000
      vertex -30.000000 -30.000000 1020.000000
    endloop
  endfacet
  facet normal 1.000000 0.000000 0.000000
    outer loop
      vertex -20.049999 20.049999 1020.000000
      vertex -20.049999 -20.049999 1020.000000
      vertex -20.049999 -20.049999 1000.000000
    endloop
  endfacet
  facet normal 1.000000 0.000000 0.000000
    outer loop
      vertex -20.049999 20.049999 1020.000000
      vertex -20.049999 -20.049999 1000.000000
      vertex -20.049999 20.049999 1000.000000
    endloop
  endfacet
  facet normal -0.000000 1.000000 0.000000
    outer loop
      vertex -20.049999 -20.049999 1020.000000
      vertex 20.049999 -20.049999 1020.000000
      vertex 20.049999 -20.049999 1000.000000
    endloop
  endfacet
  facet normal 0.000000 1.000000 0.000000
    outer loop
      vertex -20.049999 -20.049999 1020.000000
      vertex 20.049999 -20.049999 1000.000000
      vertex -20.049999 -20.049999 1000.000000
    endloop
  endfacet
  facet normal -1.000000 0.000000 0.000000
    outer loop
      vertex 20.049999 -20.049999 1020.000000
      vertex 20.049999 20.049999 1020.000000
      vertex 20.049999 20.049999 1000.000000
    endloop
  endfacet
  facet normal -1.000000 0.000000 0.000000
    outer loop
      vertex 20.049999 -20.049999 1020.000000
      vertex 20.049999 20.049999 1000.000000
      vertex 20.049999 -20.049999 1000.000000
    endloop
  endfacet
  facet normal -0.000000 -1.000000 0.000000
    outer loop
      vertex 20.049999 20.049999 1020.000000
      vertex -20.049999 20.049999 1020.000000
      vertex -20.049999 20.049999 1000.000000
    endloop
  endfacet
  facet normal 0.000000 -1.000000 -0.000000
    outer loop
      vertex 20.049999 20.049999 1020.000000
      vertex -20.049999 20.049999 1000.000000
      vertex 20.049999 20.049999 1000.000000
    endloop
  endfacet
  facet normal 0.000000 0.000000 1.000000
    outer loop
      vertex 20.049999 -20.049999 1000.000000
      vertex -20.049999 20.049999 1000.000000
      vertex -20.049999 -20.049999 1000.000000
    endloop
  endfacet
  facet normal 0.000000 0.000000 1.000000
    outer loop
      vertex 20.049999 20.049999 1000.000000
      vertex -20.049999 20.049999 1000.000000
      vertex 20.049999 -20.049999 1000.000000
    endloop
  endfacet
endsolid Mesh
