solid Mesh
 facet normal 0 1 0
  outer loop
   vertex 0.03 0.03 1.02
   vertex -0.03 0.03 0.97
   vertex -0.03 0.03 1.02
  endloop
 endfacet
 facet normal 0 1 -0
  outer loop
   vertex 0.03 0.03 0.97
   vertex -0.03 0.03 0.97
   vertex 0.03 0.03 1.02
  endloop
 endfacet
 facet normal -1 -0 0
  outer loop
   vertex -0.03 0.03 1.02
   vertex -0.03 -0.03 0.97
   vertex -0.03 -0.03 1.02
  endloop
 endfacet
 facet normal -1 0 0
  outer loop
   vertex -0.03 0.03 0.97
   vertex -0.03 -0.03 0.97
   vertex -0.03 0.03 1.02
  endloop
 endfacet
 facet normal 1 -0 0
  outer loop
   vertex 0.03 -0.03 1.02
   vertex 0.03 0.03 0.97
   vertex 0.03 0.03 1.02
  endloop
 endfacet
 facet normal 1 0 0
  outer loop
   vertex 0.03 -0.03 0.97
   vertex 0.03 0.03 0.97
   vertex 0.03 -0.03 1.02
  endloop
 endfacet
 facet normal 0 0 -1
  outer loop
   vertex -0.03 0.03 0.97
   vertex 0.03 0.03 0.97
   vertex -0.03 -0.03 0.97
  endloop
 endfacet
 facet normal 0 0 -1
  outer loop
   vertex -0.03 -0.03 0.97
   vertex 0.03 0.03 0.97
   vertex 0.03 -0.03 0.97
  endloop
 endfacet
 facet normal 0 0 1
  outer loop
   vertex 0.02005 -0.02005 1.02
   vertex -0.03 -0.03 1.02
   vertex 0.03 -0.03 1.02
  endloop
 endfacet
 facet normal 0 0 1
  outer loop
   vertex 0.02005 -0.02005 1.02
   vertex -0.02005 -0.02005 1.02
   vertex -0.03 -0.03 1.02
  endloop
 endfacet
 facet normal 0 0 1
  outer loop
   vertex -0.02005 0.02005 1.02
   vertex -0.03 0.03 1.02
   vertex -0.03 -0.03 1.02
  endloop
 endfacet
 facet normal 0 0 1
  outer loop
   vertex -0.02005 0.02005 1.02
   vertex -0.03 -0.03 1.02
   vertex -0.02005 -0.02005 1.02
  endloop
 endfacet
 facet normal 0 0 1
  outer loop
   vertex 0.02005 0.02005 1.02
   vertex -0.03 0.03 1.02
   vertex -0.02005 0.02005 1.02
  endloop
 endfacet
 facet normal 0 0 1
  outer loop
   vertex 0.03 0.03 1.02
   vertex 0.02005 0.02005 1.02
   vertex 0.02005 -0.02005 1.02
  endloop
 endfacet
 facet normal 0 0 1
  outer loop
   vertex 0.03 0.03 1.02
   vertex 0.02005 -0.02005 1.02
   vertex 0.03 -0.03 1.02
  endloop
 endfacet
 facet normal 0 0 1
  outer loop
   vertex 0.03 0.03 1.02
   vertex -0.03 0.03 1.02
   vertex 0.02005 0.02005 1.02
  endloop
 endfacet
 facet normal 0 -1 0
  outer loop
   vertex -0.03 -0.03 1.02
   vertex 0.03 -0.03 0.97
   vertex 0.03 -0.03 1.02
  endloop
 endfacet
 facet normal 0 -1 0
  outer loop
   vertex -0.03 -0.03 0.97
   vertex 0.03 -0.03 0.97
   vertex -0.03 -0.03 1.02
  endloop
 endfacet
 facet normal 1 0 0
  outer loop
   vertex -0.02005 0.02005 1.02
   vertex -0.02005 -0.02005 1.02
   vertex -0.02005 -0.02005 1
  endloop
 endfacet
 facet normal 1 0 0
  outer loop
   vertex -0.02005 0.02005 1.02
   vertex -0.02005 -0.02005 1
   vertex -0.02005 0.02005 1
  endloop
 endfacet
 facet normal -0 1 0
  outer loop
   vertex -0.02005 -0.02005 1.02
   vertex 0.02005 -0.02005 1.02
   vertex 0.02005 -0.02005 1
  endloop
 endfacet
 facet normal 0 1 0
  outer loop
   vertex -0.02005 -0.02005 1.02
   vertex 0.02005 -0.02005 1
   vertex -0.02005 -0.02005 1
  endloop
 endfacet
 facet normal -1 0 0
  outer loop
   vertex 0.02005 -0.02005 1.02
   vertex 0.02005 0.02005 1.02
   vertex 0.02005 0.02005 1
  endloop
 endfacet
 facet normal -1 0 0
  outer loop
   vertex 0.02005 -0.02005 1.02
   vertex 0.02005 0.02005 1
   vertex 0.02005 -0.02005 1
  endloop
 endfacet
 facet normal -0 -1 0
  outer loop
   vertex 0.02005 0.02005 1.02
   vertex -0.02005 0.02005 1.02
   vertex -0.02005 0.02005 1
  endloop
 endfacet
 facet normal 0 -1 -0
  outer loop
   vertex 0.02005 0.02005 1.02
   vertex -0.02005 0.02005 1
   vertex 0.02005 0.02005 1
  endloop
 endfacet
 facet normal 0 0 1
  outer loop
   vertex 0.02005 -0.02005 1
   vertex -0.02005 0.02005 1
   vertex -0.02005 -0.02005 1
  endloop
 endfacet
 facet normal 0 0 1
  outer loop
   vertex 0.02005 0.02005 1
   vertex -0.02005 0.02005 1
   vertex 0.02005 -0.02005 1
  endloop
 endfacet
endsolid Mesh
