solid Mesh
 facet normal 0 1 0
  outer loop
   vertex -10 -5 -0
   vertex -10 -5 7.1
   vertex 10 -5 0
  endloop
 endfacet
 facet normal 0 1 -0
  outer loop
   vertex 10 -5 0
   vertex -10 -5 7.1
   vertex 10 -5 7.1
  endloop
 endfacet
 facet normal 1 0 0
  outer loop
   vertex -10 0 5
   vertex -10 -5 -0
   vertex -10 5 -0
  endloop
 endfacet
 facet normal 1 0 0
  outer loop
   vertex -10 0 5
   vertex -10 -5 8
   vertex -10 -5 7.1
  endloop
 endfacet
 facet normal 1 0 0
  outer loop
   vertex -10 0 5
   vertex -10 -5 7.1
   vertex -10 -5 -0
  endloop
 endfacet
 facet normal 1 0 0
  outer loop
   vertex -10 5 7.1
   vertex -10 0 5
   vertex -10 5 -0
  endloop
 endfacet
 facet normal 1 0 0
  outer loop
   vertex -10 5 8
   vertex -10 0 5
   vertex -10 5 7.1
  endloop
 endfacet
 facet normal 0 0 1
  outer loop
   vertex -10 -5.2 7.1
   vertex 10 -5.2 7.1
   vertex 10 -5 7.1
  endloop
 endfacet
 facet normal 0 0 1
  outer loop
   vertex -10 -5.2 7.1
   vertex 10 -5 7.1
   vertex -10 -5 7.1
  endloop
 endfacet
 facet normal -1 0 0
  outer loop
   vertex 10 -5 0
   vertex 10 -0 5
   vertex 10 5 0
  endloop
 endfacet
 facet normal -1 0 0
  outer loop
   vertex 10 -5 8
   vertex 10 -0 5
   vertex 10 -5 7.1
  endloop
 endfacet
 facet normal -1 0 0
  outer loop
   vertex 10 -5 7.1
   vertex 10 -0 5
   vertex 10 -5 0
  endloop
 endfacet
 facet normal -1 0 0
  outer loop
   vertex 10 -0 5
   vertex 10 5 7.1
   vertex 10 5 0
  endloop
 endfacet
 facet normal -1 0 0
  outer loop
   vertex 10 -0 5
   vertex 10 5 8
   vertex 10 5 7.1
  endloop
 endfacet
 facet normal 0 0 -1
  outer loop
   vertex 10 5 0
   vertex 10.2 5.2 0
   vertex 10 -5 0
  endloop
 endfacet
 facet normal 0 0 -1
  outer loop
   vertex 10 -5 0
   vertex 10.2 5.2 0
   vertex 10.2 -5.2 0
  endloop
 endfacet
 facet normal 0 0 -1
  outer loop
   vertex 10.2 -5.2 0
   vertex -10 -5 -0
   vertex 10 -5 0
  endloop
 endfacet
 facet normal -0 -0 -1
  outer loop
   vertex 10.2 -5.2 0
   vertex -10.2 -5.2 0
   vertex -10 -5 -0
  endloop
 endfacet
 facet normal 0 0 -1
  outer loop
   vertex 10 5 0
   vertex -10 5 -0
   vertex 10.2 5.2 0
  endloop
 endfacet
 facet normal 0 0 -1
  outer loop
   vertex -10.2 -5.2 0
   vertex -10 5 -0
   vertex -10 -5 -0
  endloop
 endfacet
 facet normal 0 0 -1
  outer loop
   vertex -10 5 -0
   vertex -10.2 5.2 -0
   vertex 10.2 5.2 0
  endloop
 endfacet
 facet normal 0 0 -1
  outer loop
   vertex -10.2 -5.2 0
   vertex -10.2 5.2 -0
   vertex -10 5 -0
  endloop
 endfacet
 facet normal 1 0 0
  outer loop
   vertex -10 -5.2 8
   vertex -10 -5.2 7.1
   vertex -10 -5 7.1
  endloop
 endfacet
 facet normal 1 -0 0
  outer loop
   vertex -10 -5.2 8
   vertex -10 -5 7.1
   vertex -10 -5 8
  endloop
 endfacet
 facet normal 0 -0.514496 -0.857493
  outer loop
   vertex -10 -5 8
   vertex -10 0 5
   vertex 10 -5 8
  endloop
 endfacet
 facet normal 0 -0.514496 -0.857493
  outer loop
   vertex 10 -5 8
   vertex -10 0 5
   vertex 10 -0 5
  endloop
 endfacet
 facet normal 0 0.514496 -0.857493
  outer loop
   vertex 10 -0 5
   vertex -10 0 5
   vertex 10 5 8
  endloop
 endfacet
 facet normal 0 0.514496 -0.857493
  outer loop
   vertex -10 0 5
   vertex -10 5 8
   vertex 10 5 8
  endloop
 endfacet
 facet normal 0 -1 0
  outer loop
   vertex -10 5 7.1
   vertex -10 5 -0
   vertex 10 5 0
  endloop
 endfacet
 facet normal 0 -1 0
  outer loop
   vertex -10 5 7.1
   vertex 10 5 0
   vertex 10 5 7.1
  endloop
 endfacet
 facet normal 1 0 -0
  outer loop
   vertex -10 5.2 7.1
   vertex -10 5.2 8
   vertex -10 5 8
  endloop
 endfacet
 facet normal 1 0 0
  outer loop
   vertex -10 5.2 7.1
   vertex -10 5 8
   vertex -10 5 7.1
  endloop
 endfacet
 facet normal -1 0 0
  outer loop
   vertex 10 -5 7.1
   vertex 10 -5.2 8
   vertex 10 -5 8
  endloop
 endfacet
 facet normal -1 0 0
  outer loop
   vertex 10 -5.2 7.1
   vertex 10 -5.2 8
   vertex 10 -5 7.1
  endloop
 endfacet
 facet normal 0 -1 0
  outer loop
   vertex 10.2 -5.2 8.35324
   vertex 10 -5.2 8
   vertex 10 -5.2 7.1
  endloop
 endfacet
 facet normal 0 -1 -0
  outer loop
   vertex 10.2 -5.2 8.35324
   vertex 10 -5.2 7.1
   vertex 10.2 -5.2 0
  endloop
 endfacet
 facet normal 0 -1 -0
  outer loop
   vertex -10 -5.2 7.1
   vertex -10.2 -5.2 0
   vertex 10.2 -5.2 0
  endloop
 endfacet
 facet normal 0 -1 0
  outer loop
   vertex -10 -5.2 7.1
   vertex 10.2 -5.2 0
   vertex 10 -5.2 7.1
  endloop
 endfacet
 facet normal 0 -1 0
  outer loop
   vertex -10 -5.2 8
   vertex 10 -5.2 8
   vertex 10.2 -5.2 8.35324
  endloop
 endfacet
 facet normal 0 -1 0
  outer loop
   vertex -10.2 -5.2 8.35324
   vertex -10 -5.2 7.1
   vertex -10 -5.2 8
  endloop
 endfacet
 facet normal 0 -1 0
  outer loop
   vertex -10.2 -5.2 8.35324
   vertex -10 -5.2 8
   vertex 10.2 -5.2 8.35324
  endloop
 endfacet
 facet normal 0 -1 0
  outer loop
   vertex -10.2 -5.2 8.35324
   vertex -10.2 -5.2 0
   vertex -10 -5.2 7.1
  endloop
 endfacet
 facet normal -1 0 0
  outer loop
   vertex 10 5 8
   vertex 10 5.2 7.1
   vertex 10 5 7.1
  endloop
 endfacet
 facet normal -1 -0 -0
  outer loop
   vertex 10 5.2 8
   vertex 10 5.2 7.1
   vertex 10 5 8
  endloop
 endfacet
 facet normal -0 1 0
  outer loop
   vertex 10 5.2 8
   vertex 10.2 5.2 8.35324
   vertex 10 5.2 7.1
  endloop
 endfacet
 facet normal -0 1 0
  outer loop
   vertex 10 5.2 7.1
   vertex 10.2 5.2 8.35324
   vertex 10.2 5.2 0
  endloop
 endfacet
 facet normal 0 1 0
  outer loop
   vertex -10.2 5.2 -0
   vertex -10 5.2 7.1
   vertex 10.2 5.2 0
  endloop
 endfacet
 facet normal 0 1 0
  outer loop
   vertex 10.2 5.2 0
   vertex -10 5.2 7.1
   vertex 10 5.2 7.1
  endloop
 endfacet
 facet normal 0 1 -0
  outer loop
   vertex -10 5.2 8
   vertex -10.2 5.2 8.35324
   vertex 10 5.2 8
  endloop
 endfacet
 facet normal 0 1 -0
  outer loop
   vertex -10 5.2 7.1
   vertex -10.2 5.2 8.35324
   vertex -10 5.2 8
  endloop
 endfacet
 facet normal 0 1 -0
  outer loop
   vertex 10 5.2 8
   vertex -10.2 5.2 8.35324
   vertex 10.2 5.2 8.35324
  endloop
 endfacet
 facet normal 0 1 0
  outer loop
   vertex -10.2 5.2 -0
   vertex -10.2 5.2 8.35324
   vertex -10 5.2 7.1
  endloop
 endfacet
 facet normal -1 0 0
  outer loop
   vertex -10.2 -5.2 0
   vertex -10.2 0 5.23324
   vertex -10.2 5.2 -0
  endloop
 endfacet
 facet normal -1 0 0
  outer loop
   vertex -10.2 -5.2 8.35324
   vertex -10.2 0 5.23324
   vertex -10.2 -5.2 0
  endloop
 endfacet
 facet normal -1 0 0
  outer loop
   vertex -10.2 0 5.23324
   vertex -10.2 5.2 8.35324
   vertex -10.2 5.2 -0
  endloop
 endfacet
 facet normal 1 0 0
  outer loop
   vertex 10.2 -0 5.23324
   vertex 10.2 -5.2 0
   vertex 10.2 5.2 0
  endloop
 endfacet
 facet normal 1 0 0
  outer loop
   vertex 10.2 -0 5.23324
   vertex 10.2 -5.2 8.35324
   vertex 10.2 -5.2 0
  endloop
 endfacet
 facet normal 1 0 0
  outer loop
   vertex 10.2 5.2 8.35324
   vertex 10.2 -0 5.23324
   vertex 10.2 5.2 0
  endloop
 endfacet
 facet normal -0 0 -1
  outer loop
   vertex 10 -5 8
   vertex -10 -5.2 8
   vertex -10 -5 8
  endloop
 endfacet
 facet normal 0 0 -1
  outer loop
   vertex 10 -5.2 8
   vertex -10 -5.2 8
   vertex 10 -5 8
  endloop
 endfacet
 facet normal 0 0 -1
  outer loop
   vertex -10 5.2 8
   vertex 10 5.2 8
   vertex 10 5 8
  endloop
 endfacet
 facet normal 0 0 -1
  outer loop
   vertex -10 5.2 8
   vertex 10 5 8
   vertex -10 5 8
  endloop
 endfacet
 facet normal 0 0 1
  outer loop
   vertex 10 5.2 7.1
   vertex -10 5.2 7.1
   vertex -10 5 7.1
  endloop
 endfacet
 facet normal 0 0 1
  outer loop
   vertex 10 5.2 7.1
   vertex -10 5 7.1
   vertex 10 5 7.1
  endloop
 endfacet
 facet normal -0 0.514496 0.857493
  outer loop
   vertex -10.2 -5.2 8.35324
   vertex 10.2 -5.2 8.35324
   vertex 10.2 -0 5.23324
  endloop
 endfacet
 facet normal 0 0.514496 0.857493
  outer loop
   vertex -10.2 0 5.23324
   vertex -10.2 -5.2 8.35324
   vertex 10.2 -0 5.23324
  endloop
 endfacet
 facet normal 0 -0.514496 0.857493
  outer loop
   vertex -10.2 5.2 8.35324
   vertex -10.2 0 5.23324
   vertex 10.2 -0 5.23324
  endloop
 endfacet
 facet normal 0 -0.514496 0.857493
  outer loop
   vertex -10.2 5.2 8.35324
   vertex 10.2 -0 5.23324
   vertex 10.2 5.2 8.35324
  endloop
 endfacet
endsolid Mesh
